<?xml version="1.0" encoding="UTF-8"?>
<svg id="Capa_1" xmlns="http://www.w3.org/2000/svg" version="1.1" viewBox="0 0 80 80">
  <!-- Generator: Adobe Illustrator 29.7.1, SVG Export Plug-In . SVG Version: 2.1.1 Build 8)  -->
  <defs>
    <style>
      .st0 {
        fill: #f49a2b;
      }
    </style>
  </defs>
  <g>
    <path class="st0" d="M54.45,39.01c25.83-3.14,28.01,36.53,2.58,36.69-21.94.14-24.43-34.03-2.58-36.69ZM47.85,53.99c-.81.82-.68,2.38-.14,3.32.2.35,5.33,5.47,5.68,5.68,1.5.88,2.38.42,3.66-.48,1.46-1.02,7.5-7.12,8.64-8.62,2.06-2.72.33-5.44-2.04-4.33-1.63.77-7.37,8.18-8.48,8.38-2-.7-5.01-6.29-7.32-3.94Z"/>
    <path class="st0" d="M65.02,25.69c.6.55,7.68-.87,1.64,5.31-4.73,4.84-7.34,1.06-10.31-3.27.01-2.54,2.38-1.82,4.11-2.25-1.06-1.87-2.03-3.96-3.85-5.23s-8.36-2.53-5.44-5.88c2.48-2.83,9.33,3.05,11.1,5.21.55.67,1.48,1.96,1.84,2.7.54,1.11.79,3.28.92,3.4Z"/>
    <path class="st0" d="M25.02,56.15c.35,3.6,3.53,5.48,6.5,6.89,1.72.82,3.61.34,3.45,2.9s-3.77,1.72-5.32,1.24c-4.45-1.39-8.84-6.2-8.72-11.04l-3.89-.42c-1.53-2.16,3.51-7.76,5.95-7.71,3.32.07,9.67,9.7,2.03,8.13Z"/>
  </g>
  <g>
    <path class="st0" d="M23.59,4.3c23.52-.39,24.9,35.81,3.12,37.79C-1.25,44.63-2.11,4.73,23.59,4.3ZM24.47,10.72h-1.63s0,2.45,0,2.45c-9.27.13-9.36,10.82-.04,11.44l.04,5.26c-2.04.1-2.97-1.34-2.87-3.24h-4.87c.55,4.55,3.3,6.52,7.68,6.96l.06,2.39h1.63s.38-2.68.38-2.68c9.82-.59,9.28-11.6-.33-12.45l-.05-4.83c1.66.45,2.37,1.01,2.48,2.81l4.44-.16c-.31-3.81-3.24-5.89-6.93-5.49v-2.45Z"/>
    <path class="st0" d="M24.48,29.87v-4.89c4,.55,3.88,4.83,0,4.89Z"/>
    <path class="st0" d="M22.84,20.5c-3.48,0-3.3-3.73-.2-4.48l.2,4.48Z"/>
  </g>
</svg>