<?xml version="1.0" encoding="UTF-8"?>
<svg id="Capa_1" xmlns="http://www.w3.org/2000/svg" version="1.1" viewBox="0 0 80 69.47">
  <!-- Generator: Adobe Illustrator 29.7.1, SVG Export Plug-In . SVG Version: 2.1.1 Build 8)  -->
  <path d="M15.02,6.69l49.29-.06c6.12.44,10.88,5.13,11.28,11.28.71,11.03-.55,22.81-.01,33.92-.47,5.28-4.36,9.69-9.56,10.72-16.81.55-33.72.07-50.56.24-5.96-.41-10.72-5-11.27-10.96V17.6c.52-5.76,5.06-10.37,10.84-10.91ZM16.31,19.5c-.96.2-1.85,1.37-1.89,2.34-.06,1.18.81,2,1.53,2.82,5.25,6,11.23,11.42,16.47,17.44,5.44,4.38,10.45,3.67,15.25-.98,5.97-5.79,11.69-11.96,17.4-17.98,1.2-2.49-1.6-4.81-3.81-3.16l-18.28,18.72c-2.06,1.65-4.58,1.55-6.66,0l-17.44-18.42c-.7-.69-1.59-.97-2.56-.77Z"/>
</svg>