<?xml version="1.0" encoding="UTF-8"?>
<svg id="Capa_1" xmlns="http://www.w3.org/2000/svg" version="1.1" viewBox="0 0 80 80">
  <!-- Generator: Adobe Illustrator 29.7.1, SVG Export Plug-In . SVG Version: 2.1.1 Build 8)  -->
  <defs>
    <style>
      .st0 {
        fill: #f49a2b;
      }
    </style>
  </defs>
  <path class="st0" d="M26.42,16.28c-.56-.58-.55-1.92-.59-2.72-8.12,2.67-15.12,13.27-15.98,21.52-1.41,13.48,3.35,24.59,15.07,31.51,1.19.7,7.07,3.22,7.28,3.56.43.7.33,1.65,0,2.37-1.34,2.69-8.34-1.14-10.11-2.16C-1.71,56.57-.09,21.62,23.47,8.61c-3.47-1.64-2.44-5.46,1.43-4.76,1.47.27,6.53,2.47,6.97,3.9.88,2.82-2.33,11.75-5.46,8.52Z"/>
  <path class="st0" d="M56.02,70.64c-.36,1.26.81.91,1.43,1.6,1.25,1.4,1.8,2.39.23,3.98-2.29-1.41-7.47-1.88-9.4-3.28-1.8-1.3.51-7.07,1.82-8.47.88-.94,2.71-2.02,3.6-.61.61.97-.04,3.34,1.13,2.98.73-.22,3.73-2.42,4.5-3.05,14.76-12.21,14.86-36.74-.79-48.27-2.24-1.65-9.87-4.18-10.44-6.08-1.98-6.67,9.66-.11,11.84,1.37,17.63,11.96,19.99,37.19,5.97,52.96-2.69,3.02-5.95,5.69-9.89,6.86Z"/>
  <g>
    <path class="st0" d="M39.9,17.92c27.23-.45,28.82,41.46,3.61,43.75-32.37,2.94-33.36-43.26-3.61-43.75ZM40.93,25.35h-1.88s0,2.83,0,2.83c-10.73.16-10.84,12.53-.05,13.25l.04,6.08c-2.37.11-3.44-1.55-3.32-3.75l-5.64-.02c.64,5.28,3.82,7.56,8.9,8.08l.07,2.77h1.88s.44-3.1.44-3.1c11.37-.68,10.74-13.43-.38-14.42l-.06-5.6c1.92.52,2.74,1.17,2.88,3.25l5.14-.19c-.36-4.41-3.75-6.81-8.03-6.36v-2.83Z"/>
    <path class="st0" d="M40.93,47.53v-5.66c4.63.63,4.49,5.6,0,5.66Z"/>
    <path class="st0" d="M39.04,36.68c-4.03,0-3.82-4.32-.23-5.18l.23,5.18Z"/>
  </g>
</svg>