<?xml version="1.0" encoding="UTF-8"?>
<svg id="Capa_1" xmlns="http://www.w3.org/2000/svg" version="1.1" viewBox="0 0 80 80">
  <!-- Generator: Adobe Illustrator 29.7.1, SVG Export Plug-In . SVG Version: 2.1.1 Build 8)  -->
  <defs>
    <style>
      .st0 {
        fill: #f49a2b;
      }
    </style>
  </defs>
  <g>
    <path class="st0" d="M60.02,4.19c9.66-1.54,9.66,14.8-.37,12.76-6.78-1.38-6.59-11.65.37-12.76Z"/>
    <g>
      <path class="st0" d="M51.79,23.23h-9.09c-.43,0-.77.35-.77.77v9.34c0,.43.35.77.77.77h10.06c.46,0,.82-.4.77-.85l-.96-9.34c-.04-.4-.37-.7-.77-.7Z"/>
      <path class="st0" d="M38.16,62.62l-.08-9.19c0-.43-.35-.77-.77-.77h-11.54c-.4,0-.74.31-.77.71l-.82,9.19c-.04.45.32.84.77.84h12.43c.43,0,.78-.35.77-.78Z"/>
      <path class="st0" d="M8.68,48.45h11.09c.4,0,.73-.3.77-.7l.93-9.36c.05-.46-.31-.85-.77-.85h-10.07c-.37,0-.68.26-.76.62l-1.94,9.36c-.1.48.27.93.76.93Z"/>
      <path class="st0" d="M54.83,52.66h-12.13c-.43,0-.77.35-.77.77v9.19c0,.43.35.77.77.77h13.08c.46,0,.82-.4.77-.85l-.95-9.19c-.04-.4-.37-.7-.77-.7Z"/>
      <path class="st0" d="M27.56,34.12h9.59c.43,0,.78-.35.77-.78l-.08-9.34c0-.43-.35-.77-.77-.77h-8.68c-.4,0-.74.31-.77.71l-.83,9.34c-.04.45.32.84.77.84Z"/>
      <path class="st0" d="M37.19,37.55h-10.07c-.4,0-.74.31-.77.71l-.83,9.36c-.04.45.32.84.77.84h10.98c.43,0,.78-.35.77-.78l-.08-9.36c0-.43-.35-.77-.77-.77Z"/>
      <path class="st0" d="M19.19,52.66H7.48c-.37,0-.68.26-.76.62l-1.91,9.19c-.1.48.27.93.76.93h12.71c.4,0,.73-.3.77-.7l.91-9.19c.05-.46-.31-.85-.77-.85Z"/>
      <path class="st0" d="M59.99,53.51l.97,9.19c.04.39.37.69.77.69h12.31c.49,0,.86-.45.76-.94l-1.96-9.19c-.08-.36-.39-.61-.76-.61h-11.33c-.46,0-.82.4-.77.86Z"/>
      <path class="st0" d="M21.96,33.42l.93-9.34c.05-.46-.31-.85-.77-.85h-8.52c-.37,0-.68.26-.76.62l-1.94,9.34c-.1.48.27.93.76.93h9.53c.4,0,.73-.3.77-.7Z"/>
      <path class="st0" d="M41.93,38.32v9.36c0,.43.35.77.77.77h11.53c.46,0,.82-.4.77-.85l-.97-9.36c-.04-.4-.37-.7-.77-.7h-10.57c-.43,0-.77.35-.77.77Z"/>
      <path class="st0" d="M68.87,37.55h-9.71c-.46,0-.82.4-.77.86l.99,9.36c.04.39.37.69.77.69h10.71c.49,0,.86-.45.76-.94l-1.99-9.36c-.08-.36-.39-.61-.76-.61Z"/>
      <path class="st0" d="M58.64,34.12h9.17c.49,0,.86-.45.76-.94l-1.99-9.34c-.08-.36-.39-.61-.76-.61h-8.17c-.46,0-.82.4-.77.86l.99,9.34c.04.39.37.69.77.69Z"/>
    </g>
  </g>
  <path class="st0" d="M46.69,70.5v-2.58c0-.43-.35-.77-.77-.77h-12.21c-.43,0-.77.35-.77.77v2.58c0,.43-.35.77-.77.77h-1.62c-.43,0-.77.35-.77.77v2.98c0,.43.35.77.77.77h18.55c.43,0,.77-.35.77-.77v-2.98c0-.43-.35-.77-.77-.77h-1.62c-.43,0-.77-.35-.77-.77Z"/>
</svg>