<?xml version="1.0" encoding="UTF-8"?>
<svg id="Capa_1" xmlns="http://www.w3.org/2000/svg" version="1.1" viewBox="0 0 71.54 69.47">
  <!-- Generator: Adobe Illustrator 29.7.1, SVG Export Plug-In . SVG Version: 2.1.1 Build 8)  -->
  <path d="M26.21,6.13C8.1,12.25.4,32.84,9.76,49.51l-4.24,15.48,15.89-4.13c18.22,9.87,41.49-1.48,44.33-22.08C68.81,16.45,47.64-1.11,26.21,6.13ZM51.16,43.04c-.49,4.81-5.89,6.44-10.02,5.38-7.65-1.96-15.57-8.65-19.14-15.65-1.92-3.77-2.05-8.96,1.67-11.72.79-.58,2.55-.62,3.5-.47.76.12,1.05.95,1.34,1.55.9,1.88,1.6,4.02,2.41,5.96-.03.42-.25.78-.45,1.14-.42.76-2.01,2.31-2.1,2.87-.1.59.87,1.88,1.24,2.41,2.01,2.9,4.89,5.42,8.13,6.86,1.48.65,1.81,1.11,3.05-.16.54-.55,1.93-2.66,2.33-2.9.68-.41,1.72.13,2.37.4,1.28.53,2.48,1.33,3.77,1.87.46.19,1.32.16,1.74.67.27.33.21,1.36.16,1.8Z"/>
</svg>